<?xml version="1.0" standalone="no"?>
<!DOCTYPE svg PUBLIC "-//W3C//DTD SVG 20010904//EN"
 "http://www.w3.org/TR/2001/REC-SVG-20010904/DTD/svg10.dtd">
<svg version="1.0" xmlns="http://www.w3.org/2000/svg"
 width="512.000000pt" height="512.000000pt" viewBox="0 0 512.000000 512.000000"
 preserveAspectRatio="xMidYMid meet">

<g transform="translate(0.000000,512.000000) scale(0.100000,-0.100000)"
fill="#000000" stroke="none">
<path d="M2510 5104 c-14 -3 -38 -10 -55 -17 -39 -14 -2320 -1331 -2360 -1362
-17 -12 -44 -47 -60 -76 -26 -46 -30 -65 -30 -129 0 -64 4 -83 30 -129 52 -95
133 -141 247 -141 l58 0 0 -410 0 -410 -130 0 -130 0 -38 -34 -37 -34 -3 -173
c-4 -189 2 -216 51 -251 24 -17 49 -22 128 -26 l99 -5 0 -114 c0 -167 26 -203
150 -203 l60 0 0 -364 0 -364 -65 -4 c-70 -4 -110 -25 -132 -69 -8 -15 -13
-68 -13 -141 l0 -118 -94 0 c-80 0 -98 -3 -127 -23 -54 -36 -59 -55 -59 -237
0 -148 2 -168 20 -198 40 -65 -27 -62 1239 -62 822 0 1157 3 1174 11 24 11 47
47 47 73 0 7 -9 25 -21 40 l-20 26 -1145 0 -1144 0 0 110 0 110 2410 0 2410 0
0 -110 0 -110 -1128 0 c-1119 0 -1129 0 -1147 -20 -28 -31 -24 -79 9 -107 l27
-23 1140 0 c1255 0 1189 -3 1229 62 19 31 20 46 18 210 l-3 178 -33 32 c-32
32 -34 33 -137 36 l-105 4 0 123 c0 110 -2 125 -22 150 -28 36 -76 55 -138 55
l-50 0 0 365 0 365 60 0 c124 0 150 36 150 203 l0 114 99 5 c79 4 104 9 128
26 49 35 55 62 51 251 l-3 173 -37 34 -38 34 -130 0 -130 0 0 410 0 410 58 0
c114 0 195 46 247 141 26 46 30 65 30 129 0 64 -4 83 -30 129 -16 29 -43 64
-61 77 -17 13 -491 290 -1055 615 -563 325 -1080 623 -1149 663 -69 39 -137
77 -151 83 -31 13 -124 23 -159 17z m1260 -823 c1257 -725 1207 -693 1196
-776 -3 -29 -14 -49 -40 -72 -69 -64 5 -101 -1222 609 -892 516 -1116 641
-1144 641 -26 0 -74 -23 -185 -88 -231 -135 -1963 -1135 -2023 -1168 -43 -24
-62 -28 -94 -24 -54 7 -98 50 -105 103 -10 81 -57 51 1197 775 635 367 1166
669 1180 671 14 2 39 2 55 0 17 -3 550 -304 1185 -671z m-287 -288 c502 -290
964 -556 1027 -593 l115 -66 3 -452 2 -452 -960 0 -961 0 -24 -25 c-14 -13
-25 -36 -25 -50 0 -14 11 -37 25 -50 l24 -25 1131 0 1130 0 0 -105 0 -105
-2410 0 -2410 0 0 105 0 105 1140 0 1141 0 24 25 c32 31 32 69 0 100 l-24 25
-971 0 -970 0 2 452 3 451 170 98 c94 54 555 321 1025 593 470 272 861 495
868 495 7 1 423 -236 925 -526z m-2123 -2168 l0 -85 -465 0 -465 0 0 85 0 85
465 0 465 0 0 -85z m580 -20 c0 -168 32 -215 146 -215 l64 0 0 -365 0 -365
-52 0 c-68 0 -118 -25 -140 -70 -14 -27 -18 -60 -18 -147 l0 -113 -215 0 -215
0 0 118 c0 98 -3 122 -20 149 -26 43 -68 63 -135 63 l-55 0 0 365 0 365 60 0
c124 0 150 36 150 205 l0 115 215 0 215 0 0 -105z m1080 20 l0 -85 -460 0
-460 0 0 85 0 85 460 0 460 0 0 -85z m590 -30 c0 -169 26 -205 150 -205 l60 0
0 -365 0 -365 -55 0 c-67 0 -109 -20 -135 -63 -17 -27 -20 -51 -20 -149 l0
-118 -215 0 -215 0 0 113 c0 87 -4 120 -18 147 -22 45 -72 70 -139 70 l-53 0
0 365 0 365 64 0 c114 0 146 47 146 215 l0 105 215 0 215 0 0 -115z m1080 30
l0 -85 -465 0 -465 0 0 85 0 85 465 0 465 0 0 -85z m-3540 -600 l0 -365 -255
0 -255 0 0 365 0 365 255 0 255 0 0 -365z m1660 0 l0 -365 -250 0 -250 0 0
365 0 365 250 0 250 0 0 -365z m1670 0 l0 -365 -255 0 -255 0 0 365 0 365 255
0 255 0 0 -365z m-3122 -607 l3 -88 -466 0 -465 0 0 90 0 90 463 -2 462 -3 3
-87z m1662 2 l0 -90 -460 0 -460 0 0 90 0 90 460 0 460 0 0 -90z m1670 0 l0
-90 -465 0 -465 0 0 83 c0 46 3 87 7 90 3 4 213 7 465 7 l458 0 0 -90z"/>
<path d="M2519 4239 c-98 -15 -182 -78 -229 -171 -26 -52 -30 -72 -30 -138 0
-66 4 -86 30 -138 148 -295 594 -191 594 138 0 88 -29 156 -93 221 -75 75
-167 105 -272 88z m128 -166 c109 -51 114 -217 9 -282 -41 -26 -114 -28 -162
-5 -115 55 -108 244 11 294 34 14 105 11 142 -7z"/>
<path d="M3460 3387 c-48 -24 -50 -39 -48 -373 3 -291 4 -313 22 -333 25 -27
86 -29 109 -3 13 14 17 39 17 105 0 48 3 87 6 87 3 0 56 -47 117 -105 95 -89
117 -105 144 -105 43 0 73 30 73 73 0 28 -16 47 -140 167 l-141 136 130 123
c145 136 156 157 106 206 -42 43 -65 34 -179 -70 -57 -52 -107 -95 -110 -95
-3 0 -6 35 -6 78 0 63 -4 82 -17 94 -27 24 -55 29 -83 15z"/>
<path d="M1263 3366 l-28 -24 0 -320 c0 -301 1 -321 19 -341 18 -20 29 -21
165 -21 169 0 205 11 262 79 61 70 75 160 38 241 -11 25 -29 54 -40 66 -18 19
-18 23 -4 64 21 59 19 97 -9 156 -25 54 -69 94 -125 113 -19 6 -83 11 -142 11
-100 0 -110 -2 -136 -24z m257 -146 c11 -11 20 -29 20 -40 0 -38 -35 -60 -95
-60 l-55 0 0 60 0 60 55 0 c42 0 60 -5 75 -20z m23 -261 c49 -22 61 -86 22
-124 -21 -22 -33 -25 -100 -25 l-75 0 0 80 0 80 65 0 c35 0 75 -5 88 -11z"/>
<path d="M2126 3368 c-19 -17 -57 -104 -141 -326 -63 -167 -115 -309 -115
-317 0 -27 41 -65 71 -65 48 0 67 16 90 80 l22 61 125 -3 124 -3 20 -50 c26
-67 44 -85 85 -85 40 0 73 30 73 65 0 24 -196 559 -227 618 -25 49 -86 61
-127 25z m88 -337 c15 -40 25 -76 22 -78 -2 -2 -31 -3 -63 -1 l-60 3 31 82
c17 45 34 79 37 75 3 -4 18 -40 33 -81z"/>
<path d="M2665 3365 l-25 -24 0 -321 c0 -307 1 -321 20 -340 27 -27 81 -26
106 1 17 19 20 42 24 201 l5 180 128 -186 c71 -102 138 -193 150 -201 41 -29
98 -9 118 42 5 15 7 143 2 326 -6 296 -7 302 -29 324 -28 28 -64 29 -95 4 -23
-19 -24 -25 -29 -206 l-5 -187 -134 195 c-154 225 -182 247 -236 192z"/>
</g>
</svg>
